<mxfile host="app.diagrams.net" modified="2023-01-05T10:07:30.476Z" agent="5.0 (Windows NT 10.0; Win64; x64) AppleWebKit/537.36 (KHTML, like Gecko) Chrome/108.0.0.0 Safari/537.36" etag="8ChHZO8wsXE4MK_TsNFn" version="20.0.3" type="github">
  <diagram id="2lmWEHtdlYtCi0-qOWDr" name="第 1 页">
    <mxGraphModel dx="1422" dy="706" grid="1" gridSize="10" guides="1" tooltips="1" connect="1" arrows="0" fold="1" page="1" pageScale="1" pageWidth="2500" pageHeight="1600" math="0" shadow="0">
      <root>
        <mxCell id="0" />
        <mxCell id="1" parent="0" />
        <mxCell id="RCGY-_qLyhKUsnpxS1tb-14" value="&lt;b&gt;&lt;font style=&quot;font-size: 24px;&quot;&gt;两个线程并发&lt;/font&gt;&lt;/b&gt;" style="text;html=1;strokeColor=none;fillColor=none;align=center;verticalAlign=middle;whiteSpace=wrap;rounded=0;sketch=1;fontSize=14;fontColor=#000000;" vertex="1" parent="1">
          <mxGeometry y="20" width="280" height="50" as="geometry" />
        </mxCell>
        <mxCell id="RCGY-_qLyhKUsnpxS1tb-15" value="" style="rounded=0;whiteSpace=wrap;html=1;sketch=1;fontSize=24;fontColor=#333333;strokeColor=#666666;fillColor=#f5f5f5;container=1;" vertex="1" parent="1">
          <mxGeometry x="10" y="90" width="530" height="710" as="geometry">
            <mxRectangle x="610" y="45" width="50" height="40" as="alternateBounds" />
          </mxGeometry>
        </mxCell>
        <mxCell id="RCGY-_qLyhKUsnpxS1tb-1" value="&lt;font style=&quot;font-size: 18px;&quot;&gt;&lt;b&gt;时间线&lt;/b&gt;&lt;/font&gt;" style="text;html=1;strokeColor=none;fillColor=none;align=center;verticalAlign=middle;whiteSpace=wrap;rounded=0;sketch=0;fontColor=#000000;" vertex="1" parent="RCGY-_qLyhKUsnpxS1tb-15">
          <mxGeometry x="57.81818181818181" y="115" width="57.81818181818182" height="30" as="geometry" />
        </mxCell>
        <mxCell id="RCGY-_qLyhKUsnpxS1tb-2" value="" style="shape=flexArrow;endArrow=classic;html=1;rounded=1;sketch=1;fontSize=18;fontColor=#000000;strokeColor=#d79b00;curved=0;fillColor=#ffe6cc;" edge="1" parent="RCGY-_qLyhKUsnpxS1tb-15">
          <mxGeometry width="50" height="50" relative="1" as="geometry">
            <mxPoint x="154.1818181818182" y="95" as="sourcePoint" />
            <mxPoint x="160" y="610" as="targetPoint" />
          </mxGeometry>
        </mxCell>
        <mxCell id="RCGY-_qLyhKUsnpxS1tb-3" value="&lt;font style=&quot;font-size: 14px;&quot;&gt;线程A&lt;/font&gt;" style="rounded=0;whiteSpace=wrap;html=1;sketch=1;fontSize=18;fillColor=#dae8fc;strokeColor=#6c8ebf;" vertex="1" parent="RCGY-_qLyhKUsnpxS1tb-15">
          <mxGeometry x="221.63636363636363" y="105" width="86.72727272727272" height="40" as="geometry" />
        </mxCell>
        <mxCell id="RCGY-_qLyhKUsnpxS1tb-4" value="&lt;font style=&quot;font-size: 14px;&quot;&gt;线程B&lt;/font&gt;" style="rounded=0;whiteSpace=wrap;html=1;sketch=1;fontSize=18;fillColor=#d5e8d4;strokeColor=#82b366;" vertex="1" parent="RCGY-_qLyhKUsnpxS1tb-15">
          <mxGeometry x="375.8181818181818" y="105" width="86.72727272727272" height="40" as="geometry" />
        </mxCell>
        <mxCell id="RCGY-_qLyhKUsnpxS1tb-5" value="&lt;span style=&quot;font-size: 14px;&quot;&gt;更新数据库&lt;/span&gt;" style="rounded=0;whiteSpace=wrap;html=1;sketch=1;fontSize=18;fillColor=#dae8fc;strokeColor=#6c8ebf;" vertex="1" parent="RCGY-_qLyhKUsnpxS1tb-15">
          <mxGeometry x="221.63636363636363" y="205" width="86.72727272727272" height="40" as="geometry" />
        </mxCell>
        <mxCell id="RCGY-_qLyhKUsnpxS1tb-6" value="" style="edgeStyle=orthogonalEdgeStyle;curved=0;rounded=1;sketch=1;orthogonalLoop=1;jettySize=auto;html=1;fontSize=14;fontColor=#000000;strokeColor=#6c8ebf;fillColor=#dae8fc;" edge="1" parent="RCGY-_qLyhKUsnpxS1tb-15" source="RCGY-_qLyhKUsnpxS1tb-3" target="RCGY-_qLyhKUsnpxS1tb-5">
          <mxGeometry relative="1" as="geometry" />
        </mxCell>
        <mxCell id="RCGY-_qLyhKUsnpxS1tb-7" value="&lt;span style=&quot;font-size: 14px;&quot;&gt;删除缓存&lt;/span&gt;" style="rounded=0;whiteSpace=wrap;html=1;sketch=1;fontSize=18;fillColor=#dae8fc;strokeColor=#6c8ebf;" vertex="1" parent="RCGY-_qLyhKUsnpxS1tb-15">
          <mxGeometry x="221.63636363636363" y="355" width="86.72727272727272" height="40" as="geometry" />
        </mxCell>
        <mxCell id="RCGY-_qLyhKUsnpxS1tb-8" value="" style="edgeStyle=orthogonalEdgeStyle;curved=0;rounded=1;sketch=1;orthogonalLoop=1;jettySize=auto;html=1;fontSize=14;fontColor=#000000;strokeColor=#6c8ebf;fillColor=#dae8fc;" edge="1" parent="RCGY-_qLyhKUsnpxS1tb-15" source="RCGY-_qLyhKUsnpxS1tb-5" target="RCGY-_qLyhKUsnpxS1tb-7">
          <mxGeometry relative="1" as="geometry" />
        </mxCell>
        <mxCell id="RCGY-_qLyhKUsnpxS1tb-9" value="&lt;font style=&quot;font-size: 14px;&quot;&gt;读取数据库&lt;/font&gt;" style="rounded=0;whiteSpace=wrap;html=1;sketch=1;fontSize=18;fillColor=#d5e8d4;strokeColor=#82b366;" vertex="1" parent="RCGY-_qLyhKUsnpxS1tb-15">
          <mxGeometry x="375.8181818181818" y="255" width="86.72727272727272" height="40" as="geometry" />
        </mxCell>
        <mxCell id="RCGY-_qLyhKUsnpxS1tb-10" value="" style="edgeStyle=orthogonalEdgeStyle;curved=0;rounded=1;sketch=1;orthogonalLoop=1;jettySize=auto;html=1;fontSize=14;fontColor=#000000;strokeColor=#82b366;fillColor=#d5e8d4;" edge="1" parent="RCGY-_qLyhKUsnpxS1tb-15" source="RCGY-_qLyhKUsnpxS1tb-4" target="RCGY-_qLyhKUsnpxS1tb-9">
          <mxGeometry relative="1" as="geometry" />
        </mxCell>
        <mxCell id="RCGY-_qLyhKUsnpxS1tb-11" value="&lt;font style=&quot;font-size: 14px;&quot;&gt;将新数据写入缓存&lt;/font&gt;" style="rounded=0;whiteSpace=wrap;html=1;sketch=1;fontSize=18;fillColor=#d5e8d4;strokeColor=#82b366;" vertex="1" parent="RCGY-_qLyhKUsnpxS1tb-15">
          <mxGeometry x="375.8181818181818" y="315" width="86.72727272727272" height="40" as="geometry" />
        </mxCell>
        <mxCell id="RCGY-_qLyhKUsnpxS1tb-12" value="" style="edgeStyle=orthogonalEdgeStyle;curved=0;rounded=1;sketch=1;orthogonalLoop=1;jettySize=auto;html=1;fontSize=14;fontColor=#000000;strokeColor=#09555B;" edge="1" parent="RCGY-_qLyhKUsnpxS1tb-15" source="RCGY-_qLyhKUsnpxS1tb-9" target="RCGY-_qLyhKUsnpxS1tb-11">
          <mxGeometry relative="1" as="geometry" />
        </mxCell>
        <mxCell id="RCGY-_qLyhKUsnpxS1tb-13" value="只有两个线程并发操作没有什么大问题。&lt;br&gt;只是会有短暂的数据不一致，在更新数据到删除缓存的这个时间端，会读取到错误数据" style="rounded=0;whiteSpace=wrap;html=1;sketch=1;fontSize=14;fillColor=#f8cecc;strokeColor=#b85450;" vertex="1" parent="RCGY-_qLyhKUsnpxS1tb-15">
          <mxGeometry x="207.8181818181818" y="485" width="283.64" height="50" as="geometry" />
        </mxCell>
        <mxCell id="RCGY-_qLyhKUsnpxS1tb-18" value="&lt;b&gt;&lt;font style=&quot;font-size: 24px;&quot;&gt;三个线程并发&lt;/font&gt;&lt;/b&gt;" style="text;html=1;strokeColor=none;fillColor=none;align=center;verticalAlign=middle;whiteSpace=wrap;rounded=0;sketch=1;fontSize=14;fontColor=#000000;" vertex="1" parent="1">
          <mxGeometry x="540" y="10" width="280" height="50" as="geometry" />
        </mxCell>
        <mxCell id="RCGY-_qLyhKUsnpxS1tb-19" value="" style="rounded=0;whiteSpace=wrap;html=1;sketch=1;fontSize=24;fontColor=#333333;strokeColor=#666666;fillColor=#f5f5f5;container=0;" vertex="1" parent="1">
          <mxGeometry x="610" y="90" width="980" height="710" as="geometry">
            <mxRectangle x="610" y="45" width="50" height="40" as="alternateBounds" />
          </mxGeometry>
        </mxCell>
        <mxCell id="RCGY-_qLyhKUsnpxS1tb-21" value="&lt;font style=&quot;font-size: 18px;&quot;&gt;&lt;b&gt;时间线&lt;/b&gt;&lt;/font&gt;" style="text;html=1;strokeColor=none;fillColor=none;align=center;verticalAlign=middle;whiteSpace=wrap;rounded=0;sketch=0;fontColor=#000000;" vertex="1" parent="1">
          <mxGeometry x="701.6363636363636" y="205" width="91.63636363636363" height="30" as="geometry" />
        </mxCell>
        <mxCell id="RCGY-_qLyhKUsnpxS1tb-23" value="&lt;font style=&quot;font-size: 14px;&quot;&gt;线程A&lt;/font&gt;" style="rounded=0;whiteSpace=wrap;html=1;sketch=1;fontSize=18;fillColor=#dae8fc;strokeColor=#6c8ebf;" vertex="1" parent="1">
          <mxGeometry x="961.27" y="195" width="98.73" height="40" as="geometry" />
        </mxCell>
        <mxCell id="RCGY-_qLyhKUsnpxS1tb-24" value="&lt;font style=&quot;font-size: 14px;&quot;&gt;线程B&lt;/font&gt;" style="rounded=0;whiteSpace=wrap;html=1;sketch=1;fontSize=18;fillColor=#d5e8d4;strokeColor=#82b366;" vertex="1" parent="1">
          <mxGeometry x="1205.64" y="195" width="104.36" height="40" as="geometry" />
        </mxCell>
        <mxCell id="RCGY-_qLyhKUsnpxS1tb-25" value="&lt;span style=&quot;font-size: 14px;&quot;&gt;更新数据库&lt;/span&gt;" style="rounded=0;whiteSpace=wrap;html=1;sketch=1;fontSize=18;fillColor=#dae8fc;strokeColor=#6c8ebf;" vertex="1" parent="1">
          <mxGeometry x="961.27" y="290" width="98.73" height="40" as="geometry" />
        </mxCell>
        <mxCell id="RCGY-_qLyhKUsnpxS1tb-26" value="" style="edgeStyle=orthogonalEdgeStyle;curved=0;rounded=1;sketch=1;orthogonalLoop=1;jettySize=auto;html=1;fontSize=14;fontColor=#000000;strokeColor=#6c8ebf;fillColor=#dae8fc;" edge="1" parent="1" source="RCGY-_qLyhKUsnpxS1tb-23" target="RCGY-_qLyhKUsnpxS1tb-25">
          <mxGeometry relative="1" as="geometry" />
        </mxCell>
        <mxCell id="RCGY-_qLyhKUsnpxS1tb-27" value="&lt;span style=&quot;font-size: 14px;&quot;&gt;删除缓存&lt;/span&gt;" style="rounded=0;whiteSpace=wrap;html=1;sketch=1;fontSize=18;fillColor=#dae8fc;strokeColor=#6c8ebf;" vertex="1" parent="1">
          <mxGeometry x="961.27" y="380" width="98.73" height="40" as="geometry" />
        </mxCell>
        <mxCell id="RCGY-_qLyhKUsnpxS1tb-28" value="" style="edgeStyle=orthogonalEdgeStyle;curved=0;rounded=1;sketch=1;orthogonalLoop=1;jettySize=auto;html=1;fontSize=14;fontColor=#000000;strokeColor=#6c8ebf;fillColor=#dae8fc;" edge="1" parent="1" source="RCGY-_qLyhKUsnpxS1tb-25" target="RCGY-_qLyhKUsnpxS1tb-27">
          <mxGeometry relative="1" as="geometry" />
        </mxCell>
        <mxCell id="RCGY-_qLyhKUsnpxS1tb-29" value="&lt;font style=&quot;font-size: 14px;&quot;&gt;读取数据库&lt;/font&gt;" style="rounded=0;whiteSpace=wrap;html=1;sketch=1;fontSize=18;fillColor=#d5e8d4;strokeColor=#82b366;" vertex="1" parent="1">
          <mxGeometry x="1205.64" y="440" width="104.36" height="40" as="geometry" />
        </mxCell>
        <mxCell id="RCGY-_qLyhKUsnpxS1tb-30" value="" style="edgeStyle=orthogonalEdgeStyle;curved=0;rounded=1;sketch=1;orthogonalLoop=1;jettySize=auto;html=1;fontSize=14;fontColor=#000000;strokeColor=#82b366;fillColor=#d5e8d4;" edge="1" parent="1" source="RCGY-_qLyhKUsnpxS1tb-24" target="RCGY-_qLyhKUsnpxS1tb-29">
          <mxGeometry relative="1" as="geometry" />
        </mxCell>
        <mxCell id="RCGY-_qLyhKUsnpxS1tb-31" value="&lt;font style=&quot;font-size: 14px;&quot;&gt;将新数据写入缓存&lt;/font&gt;" style="rounded=0;whiteSpace=wrap;html=1;sketch=1;fontSize=18;fillColor=#d5e8d4;strokeColor=#82b366;" vertex="1" parent="1">
          <mxGeometry x="1205.64" y="550" width="104.36" height="40" as="geometry" />
        </mxCell>
        <mxCell id="RCGY-_qLyhKUsnpxS1tb-32" value="" style="edgeStyle=orthogonalEdgeStyle;curved=0;rounded=1;sketch=1;orthogonalLoop=1;jettySize=auto;html=1;fontSize=14;fontColor=#000000;strokeColor=#09555B;" edge="1" parent="1" source="RCGY-_qLyhKUsnpxS1tb-29" target="RCGY-_qLyhKUsnpxS1tb-31">
          <mxGeometry relative="1" as="geometry" />
        </mxCell>
        <mxCell id="RCGY-_qLyhKUsnpxS1tb-33" value="缓存和mysql数据不一致" style="rounded=0;whiteSpace=wrap;html=1;sketch=1;fontSize=14;fillColor=#f8cecc;strokeColor=#b85450;" vertex="1" parent="1">
          <mxGeometry x="980" y="630" width="550" height="50" as="geometry" />
        </mxCell>
        <mxCell id="RCGY-_qLyhKUsnpxS1tb-39" style="edgeStyle=orthogonalEdgeStyle;curved=0;rounded=1;sketch=1;orthogonalLoop=1;jettySize=auto;html=1;exitX=0.5;exitY=1;exitDx=0;exitDy=0;entryX=0.5;entryY=0;entryDx=0;entryDy=0;fontSize=24;fontColor=#000000;strokeColor=#09555B;" edge="1" parent="1" source="RCGY-_qLyhKUsnpxS1tb-36" target="RCGY-_qLyhKUsnpxS1tb-37">
          <mxGeometry relative="1" as="geometry" />
        </mxCell>
        <mxCell id="RCGY-_qLyhKUsnpxS1tb-36" value="&lt;font style=&quot;font-size: 14px;&quot;&gt;线程C&lt;/font&gt;" style="rounded=0;whiteSpace=wrap;html=1;sketch=1;fontSize=18;fillColor=#e1d5e7;strokeColor=#9673a6;" vertex="1" parent="1">
          <mxGeometry x="1420" y="195" width="100" height="40" as="geometry" />
        </mxCell>
        <mxCell id="RCGY-_qLyhKUsnpxS1tb-40" style="edgeStyle=orthogonalEdgeStyle;curved=0;rounded=1;sketch=1;orthogonalLoop=1;jettySize=auto;html=1;exitX=0.5;exitY=1;exitDx=0;exitDy=0;fontSize=24;fontColor=#000000;strokeColor=#09555B;" edge="1" parent="1" source="RCGY-_qLyhKUsnpxS1tb-37" target="RCGY-_qLyhKUsnpxS1tb-38">
          <mxGeometry relative="1" as="geometry" />
        </mxCell>
        <mxCell id="RCGY-_qLyhKUsnpxS1tb-37" value="&lt;span style=&quot;font-size: 14px;&quot;&gt;更新数据库&lt;/span&gt;" style="rounded=0;whiteSpace=wrap;html=1;sketch=1;fontSize=18;fillColor=#e1d5e7;strokeColor=#9673a6;" vertex="1" parent="1">
          <mxGeometry x="1419.99" y="340" width="100.01" height="40" as="geometry" />
        </mxCell>
        <mxCell id="RCGY-_qLyhKUsnpxS1tb-38" value="&lt;span style=&quot;font-size: 14px;&quot;&gt;删除缓存&lt;/span&gt;" style="rounded=0;whiteSpace=wrap;html=1;sketch=1;fontSize=18;fillColor=#e1d5e7;strokeColor=#9673a6;" vertex="1" parent="1">
          <mxGeometry x="1419.99" y="490" width="100.01" height="40" as="geometry" />
        </mxCell>
        <mxCell id="RCGY-_qLyhKUsnpxS1tb-22" value="" style="shape=flexArrow;endArrow=classic;html=1;rounded=1;sketch=1;fontSize=18;fontColor=#000000;strokeColor=#d79b00;curved=0;fillColor=#ffe6cc;" edge="1" parent="1">
          <mxGeometry width="50" height="50" relative="1" as="geometry">
            <mxPoint x="850" y="180" as="sourcePoint" />
            <mxPoint x="850" y="680" as="targetPoint" />
          </mxGeometry>
        </mxCell>
      </root>
    </mxGraphModel>
  </diagram>
</mxfile>
